<svg width="24" height="25" viewBox="0 0 24 25" fill="none" xmlns="http://www.w3.org/2000/svg">
<path d="M11 15.5V23.5H3C3 21.3783 3.84285 19.3434 5.34315 17.8431C6.84344 16.3429 8.87827 15.5 11 15.5ZM11 14.5C7.685 14.5 5 11.815 5 8.5C5 5.185 7.685 2.5 11 2.5C14.315 2.5 17 5.185 17 8.5C17 11.815 14.315 14.5 11 14.5ZM20 18.5H21V23.5H13V18.5H14V17.5C14 16.7044 14.3161 15.9413 14.8787 15.3787C15.4413 14.8161 16.2044 14.5 17 14.5C17.7956 14.5 18.5587 14.8161 19.1213 15.3787C19.6839 15.9413 20 16.7044 20 17.5V18.5ZM18 18.5V17.5C18 17.2348 17.8946 16.9804 17.7071 16.7929C17.5196 16.6054 17.2652 16.5 17 16.5C16.7348 16.5 16.4804 16.6054 16.2929 16.7929C16.1054 16.9804 16 17.2348 16 17.5V18.5H18Z" fill="#4A576D"/>
</svg>
