<svg width="24" height="25" viewBox="0 0 24 25" fill="none" xmlns="http://www.w3.org/2000/svg">
<g clip-path="url(#clip0_604_3641)">
<path fill-rule="evenodd" clip-rule="evenodd" d="M3 22V3.5C3 2.39543 3.89543 1.5 5 1.5H15.8571L21 6.64286V22C21 23.1046 20.1046 24 19 24H5C3.89543 24 3 23.1046 3 22ZM19.7141 6.64285L15.8569 2.78571V6.64285H19.7141ZM18 15.5H12V17.5H18V15.5ZM5.57129 19.5H18.4284V20.7857H5.57129V19.5ZM11.7083 8.15455H9.08333V7.48909C9.92734 7.23818 10.5417 6.46 10.5417 5.53636C10.5417 4.41091 9.62839 3.5 8.5 3.5C7.37161 3.5 6.45833 4.41091 6.45833 5.53636C6.45833 6.45818 7.07266 7.23818 7.91667 7.48909V8.15455H5.29167C5.13125 8.15455 5 8.28545 5 8.44545V11.2091C5 11.3691 5.13125 11.5 5.29167 11.5H11.7083C11.8687 11.5 12 11.3691 12 11.2091V8.44545C12 8.28545 11.8687 8.15455 11.7083 8.15455Z" fill="#4A576D"/>
</g>
<defs>
<clipPath id="clip0_604_3641">
<rect width="24" height="24" fill="white" transform="translate(0 0.5)"/>
</clipPath>
</defs>
</svg>
