<svg width="56" height="56" viewBox="0 0 56 56" fill="none" xmlns="http://www.w3.org/2000/svg">
<path d="M55 28C55 42.9117 42.9117 55 28 55C13.0883 55 1 42.9117 1 28C1 13.0883 13.0883 1 28 1C42.9117 1 55 13.0883 55 28Z" stroke="#FF920E" stroke-width="2"/>
<path d="M24.4143 32.7793V32.3425C24.4227 30.844 24.5531 29.6494 24.8055 28.7588C25.0663 27.8682 25.4449 27.1489 25.9414 26.6009C26.4378 26.0528 27.0351 25.5561 27.7335 25.1108C28.2551 24.7683 28.7221 24.4129 29.1344 24.0447C29.5466 23.6765 29.8748 23.2697 30.1188 22.8245C30.3628 22.3706 30.4848 21.8654 30.4848 21.3088C30.4848 20.7179 30.346 20.1998 30.0683 19.7545C29.7906 19.3092 29.4162 18.9667 28.9451 18.7269C28.4823 18.4872 27.9691 18.3673 27.4053 18.3673C26.8585 18.3673 26.341 18.4914 25.853 18.7398C25.365 18.9795 24.9654 19.3392 24.654 19.8187C24.3427 20.2897 24.1745 20.8763 24.1492 21.5785H19C19.0421 19.8658 19.4459 18.4529 20.2116 17.3397C20.9772 16.2179 21.9911 15.383 23.2532 14.8349C24.5152 14.2783 25.9077 14 27.4306 14C29.1049 14 30.5857 14.2826 31.8731 14.8478C33.1604 15.4044 34.17 16.2136 34.902 17.2755C35.634 18.3373 36 19.6175 36 21.1161C36 22.118 35.8359 23.0086 35.5078 23.7878C35.1881 24.5585 34.7379 25.2436 34.1574 25.843C33.5768 26.4339 32.8911 26.9691 32.1002 27.4486C31.4355 27.8511 30.8886 28.2707 30.4595 28.7074C30.0389 29.1441 29.7233 29.6494 29.513 30.2231C29.3111 30.7969 29.2059 31.5033 29.1975 32.3425V32.7793H24.4143ZM26.9131 41C26.0718 41 25.3524 40.7003 24.755 40.1009C24.166 39.4929 23.8758 38.765 23.8842 37.9172C23.8758 37.078 24.166 36.3587 24.755 35.7593C25.3524 35.1598 26.0718 34.8601 26.9131 34.8601C27.7124 34.8601 28.415 35.1598 29.0208 35.7593C29.6266 36.3587 29.9337 37.078 29.9421 37.9172C29.9337 38.4824 29.7864 39.0005 29.5004 39.4715C29.2227 39.9339 28.8567 40.3064 28.4024 40.589C27.948 40.863 27.4516 41 26.9131 41Z" fill="#FF920E"/>
</svg>
